# xmcd
#
# Track frame offsets:
#	150
#	21593
#	35263
#	61962
#	79961
#	101401
#	116531
#	134151
#	149108
#	167185
#	190476
#	219189
#	247025
#	265466
#	284106
#
# Disc length: 4014 seconds
#
# Revision: 2
# Processed by: cddbd v1.4PL0 Copyright (c) Steve Scherf et al.
# Submitted via: audiograbber 1.81.03
#
DISCID=f60fac0f
DTITLE=Merlin Dino - uzivo (live)
DYEAR=2002
DGENRE=Pop
TTITLE0=Smijehom strah pokrijem
TTITLE1=Putnici
TTITLE2=Jel Sarajevo gdje je nekad bilo
TTITLE3=Vojnik srece
TTITLE4=Zar je to sve sto je ostalo
TTITLE5=Ucini mi pravu stvar
TTITLE6=Da ti kazem sta mi je
TTITLE7=Nesto lijepo treba da se desi
TTITLE8=Kokuzna vremena
TTITLE9=Moja bogda sna
TTITLE10=Uspavanka za G.B.
TTITLE11=De facto Fato
TTITLE12=Mjesecina
TTITLE13=Danas som O.K.
TTITLE14=Nemam ja 18 godina
EXTD=Original CD only 15 songs, but it should be 20
EXTT0=
EXTT1=
EXTT2=
EXTT3=
EXTT4=
EXTT5=
EXTT6=
EXTT7=
EXTT8=
EXTT9=
EXTT10=
EXTT11=
EXTT12=
EXTT13=
EXTT14=
PLAYORDER=
